<?xml version="1.0" encoding="UTF-8" standalone="no"?>
<?xml-stylesheet href="../css/main.css" type="text/css"?>
<!DOCTYPE svg PUBLIC "-//W3C//DTD SVG 1.1//EN" "http://www.w3.org/Graphics/SVG/1.1/DTD/svg11.dtd">
<svg xmlns="http://www.w3.org/2000/svg" width="24" height="24" viewBox="0 0 24 24">
    <path class="navigation-icon-svg"
        d="M2 3H22C23.1 3 24 4 24 5V19C24 20.1 23.1 21 22 21H2C1 21 0 20.1 0 19V5C0 4 1 3 2 3M14 6V7H22V6H14M14 8V9H21.5L22 9V8H14M14 10V11H21V10H14M8 13.9C6 13.9 2 15 2 17V18H14V17C14 15 10 13.9 8 13.9M8 6A3 3 0 0 0 5 9 3 3 0 0 0 8 12 3 3 0 0 0 11 9 3 3 0 0 0 8 6Z"/>
</svg>
