<?xml version="1.0" encoding="UTF-8" standalone="no"?>
<?xml-stylesheet href="../css/main.css" type="text/css"?>
<!DOCTYPE svg PUBLIC "-//W3C//DTD SVG 1.1//EN" "http://www.w3.org/Graphics/SVG/1.1/DTD/svg11.dtd">
<svg xmlns="http://www.w3.org/2000/svg" width="24" height="24" viewBox="0 0 24 24">
    <path class="navigation-icon-svg"
        d="M13 9H18.5L13 3.5V9M6 2H14L20 8V20A2 2 0 0 1 18 22H6C4.9 22 4 21.1 4 20V4C4 2.9 4.9 2 6 2M6 20H15L18 20V12L14 16 12 14 6 20M8 9A2 2 0 0 0 6 11 2 2 0 0 0 8 13 2 2 0 0 0 10 11 2 2 0 0 0 8 9Z"/>
</svg>
